# Blender v2.80 (sub 75) OBJ File: ''
# www.blender.org
o BasaltColumns1_honeycomb.001
v 0.649019 -4.000000 -1.625289
v -1.082032 -4.000000 -1.625288
v 2.381570 -4.000000 -0.625578
v 1.083032 -4.000000 -0.875289
v 1.515544 -4.000000 -0.625578
v 1.083031 -4.000000 -1.374712
v 0.649519 -4.000000 -0.625578
v 0.217006 -4.000000 -1.374711
v -0.216507 -4.000000 -0.625577
v 0.216006 -4.000000 -0.875289
v -1.082532 -4.000000 -0.625577
v -0.650020 -4.000000 -1.374711
v -1.515045 -4.000000 -1.374711
v -1.948557 -4.000000 -0.625577
v 2.382070 -4.000000 -0.125289
v 1.948557 -4.000000 -0.874423
v 0.650019 -4.000000 -0.125289
v 1.515044 -4.000000 -0.125289
v -0.216006 -4.000000 -0.125289
v -0.649519 -4.000000 0.124423
v -0.649519 -4.000000 -0.874422
v -1.948057 -4.000000 -0.125288
v -1.515544 -4.000000 0.124423
v -1.515545 -4.000000 -0.874422
v 1.949057 -4.000000 0.125288
v 1.083032 -4.000000 0.624711
v 1.948057 -4.000000 0.624711
v 1.083032 -4.000000 0.125288
v -0.216506 -4.000000 0.874423
v 0.216007 -4.000000 0.624711
v 0.216006 -4.000000 0.125289
v -1.082532 -4.000000 0.874423
v -1.082532 -4.000000 -0.124422
v -1.516044 -4.000000 0.624712
v 1.516045 -4.000000 0.875288
v 1.082532 -4.000000 1.624422
v 1.515045 -4.000000 1.374711
v 0.649019 -4.000000 0.875288
v -1.082031 -4.000000 1.374712
v -0.217006 -4.000000 1.374711
v -0.649519 -4.000000 0.625578
v 0.217007 -4.000000 2.124711
v 0.649520 -4.000000 1.375577
v 0.217007 -4.000000 1.625289
v -0.650018 -4.000000 2.124712
v -0.650019 -4.000000 1.625289
v -0.217006 -4.000000 2.375289
v 0.649519 6.000000 -0.625578
v -0.216507 6.000000 -0.625577
v 0.216006 6.000000 -0.875289
v 0.650019 6.000000 -0.125289
v -0.216006 6.000000 -0.125289
v 0.216006 6.000000 0.125289
v -0.216507 12.000000 -0.625577
v -1.082532 12.000000 -0.625577
v -0.216006 12.000000 -0.125289
v -0.649519 12.000000 0.124423
v -0.649519 12.000000 -0.874422
v -1.082532 12.000000 -0.124422
v 0.650019 9.000000 -0.125289
v 1.083032 9.000000 0.624711
v 1.083032 9.000000 0.125288
v 0.216007 9.000000 0.624711
v 0.216006 9.000000 0.125289
v 0.649019 9.000000 0.875288
v -0.216006 15.000000 -0.125289
v -0.649519 15.000000 0.124423
v -0.216506 15.000000 0.874423
v 0.216007 15.000000 0.624711
v 0.216006 15.000000 0.125289
v -0.649519 15.000000 0.625578
v -0.649519 9.000000 0.124423
v -1.515544 9.000000 0.124423
v -1.082532 9.000000 0.874423
v -1.082532 9.000000 -0.124422
v -1.516044 9.000000 0.624712
v -0.649519 9.000000 0.625578
v -0.216506 6.000000 0.874423
v -1.082532 6.000000 0.874423
v -1.082031 6.000000 1.374712
v -0.217006 6.000000 1.374711
v -0.649519 6.000000 0.625578
v -0.650019 6.000000 1.625289
v -1.082532 6.000000 -0.625577
v -1.948557 6.000000 -0.625577
v -1.948057 6.000000 -0.125288
v -1.515544 6.000000 0.124423
v -1.515545 6.000000 -0.874422
v -1.082532 6.000000 -0.124422
v -1.082032 9.000000 -1.625288
v -1.082532 9.000000 -0.625577
v -0.650020 9.000000 -1.374711
v -1.515045 9.000000 -1.374711
v -0.649519 9.000000 -0.874422
v -1.515545 9.000000 -0.874422
v 1.515044 12.000000 -0.125289
v 1.949057 12.000000 0.125288
v 1.083032 12.000000 0.624711
v 1.948057 12.000000 0.624711
v 1.083032 12.000000 0.125288
v 1.516045 12.000000 0.875288
v 1.083032 3.000000 -0.875289
v 1.515544 3.000000 -0.625578
v 0.649519 3.000000 -0.625578
v 0.650019 3.000000 -0.125289
v 1.515044 3.000000 -0.125289
v 1.083032 3.000000 0.125288
v -0.216506 12.000000 0.874423
v 0.216007 12.000000 0.624711
v 0.649019 12.000000 0.875288
v -0.217006 12.000000 1.374711
v 0.649520 12.000000 1.375577
v 0.217007 12.000000 1.625289
v 1.083032 6.000000 0.624711
v 1.516045 6.000000 0.875288
v 1.082532 6.000000 1.624422
v 1.515045 6.000000 1.374711
v 0.649019 6.000000 0.875288
v 0.649520 6.000000 1.375577
v 0.649019 9.000000 -1.625289
v 1.083032 9.000000 -0.875289
v 1.083031 9.000000 -1.374712
v 0.649519 9.000000 -0.625578
v 0.217006 9.000000 -1.374711
v 0.216006 9.000000 -0.875289
v -0.217006 9.000000 1.374711
v 0.217007 9.000000 2.124711
v 0.217007 9.000000 1.625289
v -0.650018 9.000000 2.124712
v -0.650019 9.000000 1.625289
v -0.217006 9.000000 2.375289
v 2.381570 6.000000 -0.625578
v 1.515544 6.000000 -0.625578
v 2.382070 6.000000 -0.125289
v 1.948557 6.000000 -0.874423
v 1.515044 6.000000 -0.125289
v 1.949057 6.000000 0.125288
vt 0.223328 0.133354
vt 0.297580 0.177771
vt 0.297465 0.266708
vt 0.223271 0.311227
vt 0.148761 0.266656
vt 0.148876 0.177720
vt 0.844148 1.644740
vt 0.918500 1.600194
vt 0.992938 1.644586
vt 0.992938 1.733677
vt 0.918586 1.777914
vt 0.844148 1.733523
vt 0.672340 1.422168
vt 0.715207 1.422168
vt 0.715207 1.777709
vt 0.672340 1.777709
vt 0.414767 1.777709
vt 0.371889 1.777709
vt 0.371889 1.422168
vt 0.414766 1.422167
vt 0.801111 1.422168
vt 0.844148 1.422168
vt 0.844148 1.777709
vt 0.801111 1.777709
vt 0.543697 1.777709
vt 0.500670 1.777709
vt 0.500670 1.422167
vt 0.543697 1.422167
vt 0.300292 0.711237
vt 0.343021 0.711237
vt 0.343021 1.422321
vt 0.300292 1.422321
vt 1.754118 0.488793
vt 1.754204 0.399703
vt 1.828598 0.355542
vt 1.902908 0.399856
vt 1.902908 0.488793
vt 1.828427 0.533108
vt 0.214239 0.711237
vt 0.214239 1.422321
vt 0.000000 0.711237
vt 0.042718 0.711237
vt 0.042718 1.422321
vt 0.000000 1.422321
vt 0.128622 0.711237
vt 0.171510 0.711237
vt 0.171510 1.422321
vt 0.128622 1.422321
vt 1.359274 0.577832
vt 1.402290 0.577832
vt 1.402290 1.111145
vt 1.359274 1.111145
vt 0.992852 1.288839
vt 0.992852 1.377930
vt 0.918414 1.422321
vt 0.844148 1.377930
vt 0.844148 1.288839
vt 0.918586 1.244447
vt 1.488045 0.577832
vt 1.488045 1.111145
vt 1.281869 0.533313
vt 1.238843 0.533313
vt 1.238843 0.000000
vt 1.281869 0.000000
vt 1.410651 0.533313
vt 1.367625 0.533313
vt 1.367624 0.000000
vt 1.410651 0.000000
vt 1.531082 0.577832
vt 1.531082 1.111145
vt 0.886728 0.000000
vt 0.972780 0.000000
vt 0.972781 0.888855
vt 0.886728 0.888855
vt 1.090010 1.999949
vt 1.015658 1.955711
vt 1.015658 1.866621
vt 1.090096 1.822229
vt 1.164276 1.866774
vt 1.164276 1.955557
vt 0.801111 0.000000
vt 0.843999 0.000000
vt 0.843999 0.888855
vt 0.801111 0.888855
vt 1.015658 0.000000
vt 1.015658 0.888855
vt 0.672340 0.000000
vt 0.715356 0.000000
vt 0.715356 0.888855
vt 0.672340 0.888855
vt 1.187169 1.822229
vt 1.144291 1.822229
vt 1.144291 1.288916
vt 1.187168 1.288916
vt 0.918586 1.777914
vt 0.992938 1.822152
vt 0.992938 1.911242
vt 0.918586 1.955480
vt 0.844148 1.911088
vt 0.844234 1.822151
vt 1.229887 1.288916
vt 1.315940 1.288916
vt 1.315940 1.822229
vt 1.229887 1.822229
vt 1.058387 1.822229
vt 1.058387 1.288916
vt 1.015658 1.822229
vt 1.015658 1.288916
vt 1.187169 1.288916
vt 1.187169 1.822229
vt 1.358679 1.288916
vt 1.358679 1.822229
vt 1.702741 0.577832
vt 1.745767 0.577832
vt 1.745767 0.933374
vt 1.702741 0.933374
vt 0.074309 1.955583
vt 0.000000 1.911268
vt 0.000172 1.822332
vt 0.074567 1.777863
vt 0.148704 1.822485
vt 0.148704 1.911422
vt 1.831533 1.822229
vt 1.745629 1.822229
vt 1.745629 1.466687
vt 1.831533 1.466687
vt 1.831671 0.577832
vt 1.831671 0.933374
vt 1.874251 1.822229
vt 1.874251 1.466687
vt 1.874400 0.577832
vt 1.874400 0.933374
vt 1.702592 1.822229
vt 1.702592 1.466687
vt 1.882751 0.355542
vt 1.796847 0.355542
vt 1.796847 0.000000
vt 1.882751 0.000000
vt 2.000000 1.866697
vt 2.000000 1.955634
vt 1.925605 1.999795
vt 1.851296 1.955480
vt 1.851382 1.866390
vt 1.925777 1.822229
vt 1.401992 1.644458
vt 1.488045 1.644458
vt 1.488045 2.000000
vt 1.401992 2.000000
vt 1.925628 0.355542
vt 1.925628 0.000000
vt 1.754118 0.355542
vt 1.754118 0.000000
vt 1.359274 1.644458
vt 1.359274 2.000000
vt 1.530784 1.644458
vt 1.530784 2.000000
vt 1.359274 1.111145
vt 1.402290 1.111145
vt 1.402290 1.644458
vt 1.359274 1.644458
vt 0.223271 1.777863
vt 0.297408 1.822485
vt 0.297408 1.911422
vt 0.223013 1.955583
vt 0.148704 1.911268
vt 0.148876 1.822332
vt 1.488194 1.111145
vt 1.530933 1.111145
vt 1.530933 1.644458
vt 1.488194 1.644458
vt 1.659715 0.577832
vt 1.702741 0.577832
vt 1.702741 1.111145
vt 1.659715 1.111145
vt 1.531082 0.577832
vt 1.573811 0.577832
vt 1.573811 1.111145
vt 1.531082 1.111145
vt 1.144440 1.288916
vt 1.058685 1.288916
vt 1.058684 0.577833
vt 1.144440 0.577832
vt 1.238757 1.999795
vt 1.164362 1.955634
vt 1.164276 1.866544
vt 1.238585 1.822229
vt 1.312980 1.866390
vt 1.312980 1.955326
vt 0.543696 0.711084
vt 0.500681 0.711084
vt 0.500681 0.000000
vt 0.543696 0.000000
vt 1.015658 1.288916
vt 1.015658 0.577833
vt 0.414926 0.711084
vt 0.371889 0.711084
vt 0.371889 0.000000
vt 0.414926 0.000000
vt 1.187466 1.288916
vt 1.187466 0.577832
vt 0.543597 1.777709
vt 0.543597 1.822255
vt 0.371889 1.822255
vt 0.371889 1.777709
vt 0.543697 0.888855
vt 0.586734 0.888855
vt 0.586734 1.066625
vt 0.543697 1.066626
vt 0.543597 1.911192
vt 0.543597 1.955583
vt 0.371889 1.955583
vt 0.371889 1.911192
vt 0.586734 0.888855
vt 0.629600 0.888855
vt 0.629600 1.066625
vt 0.586734 1.066626
vt 0.629600 0.888855
vt 0.543697 0.888855
vt 0.543697 0.711084
vt 0.629600 0.711084
vt 1.702827 1.066625
vt 1.702741 0.977843
vt 1.777136 0.933374
vt 1.851531 0.977535
vt 1.851531 1.066472
vt 1.777222 1.111094
vt 0.414904 0.711084
vt 0.500808 0.711084
vt 0.500808 1.422167
vt 0.414904 1.422167
vt 0.918543 1.422321
vt 0.992852 1.466635
vt 0.992852 1.555572
vt 0.918543 1.600194
vt 0.844234 1.555880
vt 0.844148 1.466789
vt 1.187466 0.577832
vt 1.230492 0.577832
vt 1.230493 1.288916
vt 1.187466 1.288916
vt 1.316396 0.577832
vt 1.316396 1.288916
vt 1.359274 0.577832
vt 1.359274 1.288916
vt 0.371889 0.711084
vt 0.371889 1.422167
vt 0.543697 0.711084
vt 0.543697 1.422167
vt 0.128930 1.777863
vt 0.043026 1.777863
vt 0.043026 1.422321
vt 0.128930 1.422321
vt 0.543697 1.911038
vt 0.543697 1.822255
vt 0.617877 1.777709
vt 0.692315 1.822101
vt 0.692315 1.911191
vt 0.617877 1.955583
vt 1.745608 1.111145
vt 1.831363 1.111145
vt 1.831363 1.466687
vt 1.745608 1.466687
vt 1.874251 1.111145
vt 1.874251 1.466687
vt 0.171659 1.777863
vt 0.171659 1.422321
vt 0.000000 1.777863
vt 0.000000 1.422321
vt 1.702592 1.111145
vt 1.702592 1.466687
vt 1.582459 0.000000
vt 1.625336 0.000000
vt 1.625336 0.533313
vt 1.582459 0.533313
vt 0.766710 1.777709
vt 0.841019 1.822332
vt 0.841019 1.911268
vt 0.766624 1.955429
vt 0.692315 1.911115
vt 0.692401 1.822024
vt 1.711091 0.000000
vt 1.711091 0.533313
vt 1.659704 1.111145
vt 1.702592 1.111145
vt 1.702592 1.644458
vt 1.659704 1.644458
vt 1.573949 1.111145
vt 1.573949 1.644458
vt 1.530933 1.111145
vt 1.530933 1.644458
vt 1.754118 0.000000
vt 1.754118 0.533313
vt 0.801122 1.422168
vt 0.715366 1.422168
vt 0.715366 0.888855
vt 0.801121 0.888855
vt 0.844148 0.933323
vt 0.918371 0.888855
vt 0.992938 0.933323
vt 0.992938 1.022260
vt 0.918715 1.066728
vt 0.844234 1.022414
vt 1.410651 0.000000
vt 1.453666 0.000000
vt 1.453666 0.533313
vt 1.410651 0.533313
vt 1.539422 0.000000
vt 1.539422 0.533313
vt 0.844148 1.422168
vt 0.844148 0.888855
vt 1.582458 0.000000
vt 1.582459 0.533313
vt 0.672340 1.422168
vt 0.672340 0.888855
vt 0.500681 0.355542
vt 0.543696 0.355542
vt 0.918714 1.066728
vt 0.993024 1.111042
vt 0.993024 1.199979
vt 0.918457 1.244447
vt 0.844148 1.199825
vt 0.844320 1.110888
vt 0.300292 1.777863
vt 0.214388 1.777863
vt 0.214388 1.422321
vt 0.300292 1.422321
vt 0.629600 0.711084
vt 0.629600 0.355542
vt 0.171659 1.777863
vt 0.171659 1.422321
vt 0.343318 1.777863
vt 0.343318 1.422321
vt 0.672340 0.711084
vt 0.672340 0.355542
vt 0.371860 0.400215
vt 0.297494 0.444427
vt 0.223242 0.400010
vt 0.371889 0.311125
vt 1.164448 0.311022
vt 1.164477 0.400113
vt 1.090139 0.444376
vt 1.015773 0.400164
vt 1.015658 0.311227
vt 1.090082 0.266810
vt 1.238843 0.444325
vt 1.238786 0.533261
vt 1.164448 0.577832
vt 1.090253 0.533313
vt 1.851296 1.866390
vt 1.851296 1.955326
vt 1.777073 1.999795
vt 1.702678 1.955634
vt 1.702592 1.866543
vt 1.776901 1.822229
vt 1.238843 0.177822
vt 1.238786 0.266759
vt 1.090053 0.177720
vt 1.164391 0.133456
vt 1.164276 0.044520
vt 1.015687 0.133508
vt 1.015744 0.044571
vt 1.090082 0.000000
vt 0.297494 0.711237
vt 0.222985 0.666666
vt 0.223013 0.577884
vt 0.297551 0.533364
vt 0.371889 0.577935
vt 0.371860 0.666718
vt 0.148761 0.533467
vt 0.148876 0.444530
vt 0.074366 0.399959
vt 0.074395 0.311176
vt 0.074452 0.133302
vt 0.074481 0.044520
vt 0.149019 0.000000
vt 0.223185 0.044571
vt 1.573736 1.798590
vt 1.530784 1.721568
vt 1.573737 1.644724
vt 1.659491 1.644458
vt 1.702592 1.721390
vt 1.659789 1.798501
vt 0.000229 0.266605
vt 0.000172 0.177668
vt 1.659938 1.952455
vt 1.574033 1.952455
vt 1.531082 1.875611
vt 1.702592 1.875434
vt 0.074395 0.577678
vt 0.000143 0.533261
vt 0.000000 0.444479
vn 0.0000 1.0000 -0.0000
vn 0.0000 -1.0000 -0.0000
vn -0.4991 0.0000 0.8665
vn 0.5000 0.0000 0.8660
vn -0.5000 0.0000 -0.8660
vn 0.5017 0.0000 -0.8650
vn -1.0000 0.0000 0.0010
vn 1.0000 0.0000 -0.0010
vn 0.4983 0.0000 0.8670
vn 1.0000 0.0000 -0.0000
vn -0.4983 0.0000 0.8670
vn -0.4991 0.0000 -0.8665
vn 0.4983 0.0000 -0.8670
vn -0.5009 0.0000 0.8655
vn -1.0000 0.0000 0.0000
vn 0.5009 0.0000 -0.8655
vn 0.4991 0.0000 0.8665
vn -0.5017 0.0000 0.8650
vn 0.4991 0.0000 -0.8665
vn 1.0000 0.0000 0.0010
vn -0.4983 0.0000 -0.8670
vn -1.0000 0.0000 -0.0010
vn -0.5009 0.0000 -0.8655
vn 0.5000 0.0000 -0.8660
vn 0.5009 0.0000 0.8655
vn -0.5000 0.0000 0.8660
vn 0.5017 0.0000 0.8650
vn -0.5017 0.0000 -0.8650
vn -1.0000 0.0000 -0.0020
vn 1.0000 0.0000 0.0020
s 1
f 10/1/1 9/2/1 19/3/1 31/4/1 17/5/1 7/6/1
f 50/7/2 48/8/2 51/9/2 53/10/2 52/11/2 49/12/2
f 10/13/3 7/14/3 48/15/3 50/16/3
f 9/17/4 10/18/4 50/19/4 49/20/4
f 17/21/5 31/22/5 53/23/5 51/24/5
f 31/25/6 19/26/6 52/27/6 53/28/6
f 7/14/7 17/21/7 51/24/7 48/15/7
f 19/26/8 9/17/8 49/20/8 52/27/8
f 11/29/9 21/30/9 58/31/9 55/32/9
f 59/33/2 55/34/2 58/35/2 54/36/2 56/37/2 57/38/2
f 33/39/10 11/29/10 55/32/10 59/40/10
f 21/41/11 9/42/11 54/43/11 58/44/11
f 19/45/12 20/46/12 57/47/12 56/48/12
f 20/46/13 33/39/13 59/40/13 57/47/13
f 9/42/7 19/45/7 56/48/7 54/43/7
f 17/49/14 28/50/14 62/51/14 60/52/14
f 61/53/2 65/54/2 63/55/2 64/56/2 60/57/2 62/58/2
f 28/50/15 26/59/15 61/60/15 62/51/15
f 31/61/4 17/62/4 60/63/4 64/64/4
f 38/65/16 30/66/16 63/67/16 65/68/16
f 26/59/5 38/69/5 65/70/5 61/60/5
f 30/66/10 31/61/10 64/64/10 63/67/10
f 41/71/10 20/72/10 67/73/10 71/74/10
f 68/75/2 71/76/2 67/77/2 66/78/2 70/79/2 69/80/2
f 30/81/5 29/82/5 68/83/5 69/84/5
f 20/72/17 19/85/17 66/86/17 67/73/17
f 19/87/18 31/88/18 70/89/18 66/90/18
f 29/82/13 41/71/13 71/74/13 68/83/13
f 31/88/15 30/81/15 69/84/15 70/89/15
f 32/91/19 34/92/19 76/93/19 74/94/19
f 75/95/2 72/96/2 77/97/2 74/98/2 76/99/2 73/100/2
f 20/101/15 41/102/15 77/103/15 72/104/15
f 34/92/20 23/105/20 73/106/20 76/93/20
f 23/105/9 33/107/9 75/108/9 73/106/9
f 33/109/11 20/101/11 72/104/11 75/110/11
f 41/102/21 32/111/21 74/112/21 77/103/21
f 46/113/6 39/114/6 80/115/6 83/116/6
f 82/117/2 78/118/2 81/119/2 83/120/2 80/121/2 79/122/2
f 29/123/22 40/124/22 81/125/22 78/126/22
f 39/114/8 32/127/8 79/128/8 80/115/8
f 41/129/11 29/123/11 78/126/11 82/130/11
f 32/127/9 41/131/9 82/132/9 79/128/9
f 40/124/23 46/133/23 83/134/23 81/125/23
f 22/135/8 14/136/8 85/137/8 86/138/8
f 86/139/2 85/140/2 88/141/2 84/142/2 89/143/2 87/144/2
f 11/145/15 33/146/15 89/147/15 84/148/15
f 23/149/24 22/135/24 86/138/24 87/150/24
f 14/136/9 24/151/9 88/152/9 85/137/9
f 24/153/11 11/145/11 84/148/11 88/154/11
f 33/146/21 23/155/21 87/156/21 89/147/21
f 2/157/18 12/158/18 92/159/18 90/160/18
f 90/161/2 92/162/2 94/163/2 91/164/2 95/165/2 93/166/2
f 21/167/21 11/168/21 91/169/21 94/170/21
f 13/171/25 2/172/25 90/173/25 93/174/25
f 12/158/7 21/167/7 94/170/7 92/159/7
f 11/175/13 24/176/13 95/177/13 91/178/13
f 24/176/20 13/171/20 93/174/20 95/177/20
f 26/179/10 28/180/10 100/181/10 98/182/10
f 100/183/2 96/184/2 97/185/2 99/186/2 101/187/2 98/188/2
f 18/189/26 25/190/26 97/191/26 96/192/26
f 28/180/27 18/193/27 96/194/27 100/181/27
f 27/195/28 35/196/28 101/197/28 99/198/28
f 35/199/16 26/179/16 98/182/16 101/200/16
f 25/190/29 27/195/29 99/198/29 97/191/29
f 28/201/16 17/202/16 105/203/16 107/204/16
f 18/205/28 28/206/28 107/207/28 106/208/28
f 7/209/17 4/210/17 102/211/17 104/212/17
f 17/202/8 7/209/8 104/212/8 105/203/8
f 4/213/26 5/214/26 103/215/26 102/216/26
f 18/217/20 5/218/20 103/219/20 106/220/20
f 102/221/2 103/222/2 106/223/2 107/224/2 105/225/2 104/226/2
f 38/227/7 43/228/7 112/229/7 110/230/7
f 108/231/2 109/232/2 110/233/2 112/234/2 113/235/2 111/236/2
f 44/237/24 40/238/24 111/239/24 113/240/24
f 40/238/20 29/241/20 108/242/20 111/239/20
f 29/241/4 30/243/4 109/244/4 108/242/4
f 30/245/14 38/227/14 110/230/14 109/246/14
f 43/228/5 44/247/5 113/248/5 112/229/5
f 43/249/8 38/250/8 118/251/8 119/252/8
f 117/253/2 116/254/2 119/255/2 118/256/2 114/257/2 115/258/2
f 35/259/29 37/260/29 117/261/29 115/262/29
f 37/260/5 36/263/5 116/264/5 117/261/5
f 36/265/13 43/249/13 119/252/13 116/266/13
f 38/250/4 26/267/4 114/268/4 118/251/4
f 26/269/14 35/259/14 115/262/14 114/270/14
f 7/271/19 10/272/19 125/273/19 123/274/19
f 121/275/2 123/276/2 125/277/2 124/278/2 120/279/2 122/280/2
f 10/272/30 8/281/30 124/282/30 125/273/30
f 4/283/12 7/284/12 123/285/12 121/286/12
f 6/287/15 4/283/15 121/286/15 122/288/15
f 1/289/26 6/287/26 122/288/26 120/290/26
f 8/281/27 1/291/27 120/292/27 124/282/27
f 45/293/10 46/294/10 130/295/10 129/296/10
f 128/297/2 127/298/2 131/299/2 129/300/2 130/301/2 126/302/2
f 40/303/26 44/304/26 128/305/26 126/306/26
f 44/304/15 42/307/15 127/308/15 128/305/15
f 47/309/16 45/293/16 129/296/16 131/310/16
f 42/307/5 47/311/5 131/312/5 127/308/5
f 46/294/25 40/313/25 126/314/25 130/295/25
f 18/189/26 25/190/26 137/315/26 136/316/26
f 135/317/1 133/318/1 136/319/1 137/320/1 134/321/1 132/322/1
f 15/323/8 3/324/8 132/325/8 134/326/8
f 5/327/22 18/189/22 136/316/22 133/328/22
f 3/324/13 16/329/13 135/330/13 132/325/13
f 25/331/25 15/323/25 134/326/25 137/332/25
f 16/333/21 5/327/21 133/328/21 135/334/21
f 41/335/1 29/336/1 30/337/1 31/4/1 19/3/1 20/338/1
f 33/339/2 11/340/2 21/341/2 9/342/2 19/343/2 20/344/2
f 24/345/2 13/346/2 2/347/2 12/348/2 21/341/2 11/340/2
f 14/349/1 22/350/1 23/351/1 33/352/1 11/353/1 24/354/1
f 34/355/2 23/356/2 33/339/2 20/344/2 41/357/2 32/358/2
f 39/359/2 32/358/2 41/357/2 29/360/2 40/361/2 46/362/2
f 47/363/1 42/364/1 44/365/1 40/366/1 46/367/1 45/368/1
f 29/336/1 40/366/1 44/365/1 43/369/1 38/370/1 30/337/1
f 38/370/1 26/371/1 28/372/1 17/5/1 31/4/1 30/337/1
f 7/6/1 4/373/1 6/374/1 1/375/1 8/376/1 10/1/1
f 18/377/2 5/378/2 16/379/2 3/380/2 15/381/2 25/382/2
f 4/373/1 7/6/1 17/5/1 28/372/1 18/383/1 5/384/1
f 35/385/2 26/386/2 28/387/2 18/377/2 25/382/2 27/388/2
f 43/369/1 36/389/1 37/390/1 35/391/1 26/371/1 38/370/1
