# Blender v2.80 (sub 75) OBJ File: ''
# www.blender.org
o GiantCrystal_Circle.017
v -0.400000 -0.964181 -1.149067
v -0.200000 -1.229547 -0.926399
v 0.200000 -1.229547 -0.926399
v 0.400000 -0.964181 -1.149067
v 0.268305 -0.698816 -1.371735
v -0.268305 -0.698816 -1.371735
v -0.400000 2.892544 3.447200
v -0.200000 2.627178 3.669868
v 0.200000 2.627178 3.669868
v 0.400000 2.892544 3.447200
v 0.268305 3.157909 3.224532
v -0.268304 3.157909 3.224532
v -0.200000 3.346301 3.987967
v -0.100000 3.394598 4.296458
v 0.100000 3.394598 4.296458
v 0.200000 3.346302 3.987967
v 0.134152 3.298004 3.679474
v -0.134152 3.298004 3.679474
vt 1.508599 0.057472
vt 1.754300 0.000000
vt 2.000000 0.037844
vt 2.000000 0.192045
vt 1.754300 0.229889
vt 1.508599 0.172417
vt 1.224888 1.716559
vt 1.508599 1.716559
vt 1.437671 2.000000
vt 1.295816 2.000000
vt 0.844284 1.994909
vt 0.582350 1.993474
vt 0.582350 0.291771
vt 0.844284 0.293206
vt 0.160208 0.001435
vt 0.422142 0.000000
vt 0.422142 1.701703
vt 0.160208 1.703138
vt 1.224888 0.000000
vt 1.508599 0.000000
vt 0.844284 0.000000
vt 1.224888 0.000000
vt 1.224888 1.639266
vt 0.844284 1.639266
vt 0.000000 0.016698
vt 0.000000 1.718402
vt 0.422142 1.978211
vt 0.422142 0.276508
vt 1.105514 1.950395
vt 0.963659 1.950395
vt 0.892731 1.862983
vt 0.939435 1.775571
vt 1.129737 1.775571
vt 1.176441 1.862983
vt 0.221545 1.911687
vt 0.149057 1.994910
vt 0.571199 0.000000
vt 0.643687 0.083222
vt 0.767039 0.159530
vt 0.344896 1.835379
vn -0.0000 -0.6428 -0.7660
vn 0.0000 -0.6325 0.7746
vn -0.9347 0.2722 -0.2284
vn 0.9347 0.2722 -0.2284
vn 0.0000 -0.7660 0.6428
vn 0.0000 0.7660 -0.6428
vn 0.8660 -0.3830 0.3214
vn -0.8660 -0.3830 0.3214
vn -0.0000 0.9880 -0.1547
vn 0.0000 0.9557 -0.2943
vn 0.8861 -0.1875 0.4239
vn -0.8861 -0.1875 0.4239
vn -0.8158 0.5743 -0.0687
vn 0.8158 0.5743 -0.0687
s off
f 2/1/1 1/2/1 6/3/1 5/4/1 4/5/1 3/6/1
f 8/7/2 9/8/2 15/9/2 14/10/2
f 6/11/3 1/12/3 7/13/3 12/14/3
f 4/15/4 5/16/4 11/17/4 10/18/4
f 2/19/5 3/20/5 9/8/5 8/7/5
f 5/21/6 6/22/6 12/23/6 11/24/6
f 3/25/7 4/15/7 10/18/7 9/26/7
f 1/12/8 2/27/8 8/28/8 7/13/8
f 14/29/9 15/30/9 16/31/9 17/32/9 18/33/9 13/34/9
f 11/24/10 12/23/10 18/33/10 17/32/10
f 9/26/11 10/18/11 16/35/11 15/36/11
f 7/13/12 8/28/12 14/37/12 13/38/12
f 12/14/13 7/13/13 13/38/13 18/39/13
f 10/18/14 11/17/14 17/40/14 16/35/14
