# Blender v2.79 (sub 0) OBJ File: ''
# www.blender.org
mtllib kelp.mtl
o Kelp_Plane.002
v -1.000000 0.000000 0.000000
v 1.000000 0.000000 0.000000
v -1.000000 14.000000 0.000000
v 1.000000 14.000000 0.000000
v 0.000000 0.000000 1.000000
v -0.000000 0.000000 -1.000000
v 0.000000 14.000000 1.000000
v -0.000000 14.000000 -1.000000
v 0.707107 0.000000 0.707107
v -0.707107 0.000000 -0.707107
v 0.707107 14.000000 0.707107
v -0.707107 14.000000 -0.707107
v 0.707107 0.000001 -0.707107
v -0.707107 0.000001 0.707107
v 0.707107 14.000000 -0.707107
v -0.707107 14.000000 0.707107
vt -0.000851 0.000151
vt 0.998847 0.000151
vt 0.998847 0.999849
vt -0.000850 0.999849
vt -0.000920 0.000151
vt 0.998778 0.000151
vt 0.998778 0.999849
vt -0.000918 0.999849
vt -0.000895 0.000151
vt 0.998803 0.000151
vt 0.998803 0.999849
vt -0.000893 0.999849
vt -0.000846 0.000151
vt 0.998851 0.000151
vt 0.998852 0.999848
vt -0.000846 0.999848
vn 0.0000 0.0000 1.0000
vn 1.0000 0.0000 -0.0000
vn 0.7071 0.0000 -0.7071
vn -0.7071 0.0000 -0.7071
usemtl Material.001
s off
f 1/1/1 2/2/1 4/3/1 3/4/1
f 5/5/2 6/6/2 8/7/2 7/8/2
f 9/9/3 10/10/3 12/11/3 11/12/3
f 13/13/4 14/14/4 16/15/4 15/16/4
