# Blender v2.79 (sub 0) OBJ File: ''
# www.blender.org
o Palm_Circle.008
v 0.000000 0.168055 -0.217166
v -0.108583 0.168055 -0.188071
v -0.188071 0.168055 -0.108583
v -0.217166 0.168055 0.000000
v -0.188071 0.168055 0.108583
v -0.108583 0.168055 0.188071
v -0.000000 0.168055 0.217166
v 0.108583 0.168055 0.188071
v 0.188071 0.168055 0.108583
v 0.217166 0.168055 0.000000
v 0.188071 0.168055 -0.108583
v 0.108583 0.168055 -0.188071
v 0.000000 3.534341 -0.064138
v -0.032069 3.534341 -0.055545
v -0.055545 3.534341 -0.032069
v -0.064138 3.534341 0.000000
v -0.055545 3.534341 0.032069
v -0.032069 3.534341 0.055545
v -0.000000 3.534341 0.064138
v 0.032069 3.534341 0.055545
v 0.055545 3.534341 0.032069
v 0.064138 3.534341 0.000000
v 0.055545 3.534341 -0.032069
v 0.032069 3.534341 -0.055545
v 0.000000 3.599356 -0.143026
v -0.071513 3.599356 -0.123864
v -0.123864 3.599356 -0.071513
v -0.143026 3.599356 0.000000
v -0.123864 3.599356 0.071513
v -0.071513 3.599356 0.123864
v 0.000000 3.599356 0.143026
v 0.071513 3.599356 0.123864
v 0.123864 3.599356 0.071513
v 0.143026 3.599356 0.000000
v 0.123865 3.599356 -0.071513
v 0.071513 3.599356 -0.123864
v 0.000000 3.780908 -0.174605
v -0.087303 3.780908 -0.151213
v -0.151213 3.780908 -0.087303
v -0.174605 3.780908 0.000000
v -0.151213 3.780908 0.087303
v -0.087303 3.780908 0.151213
v 0.000000 3.780908 0.174605
v 0.087303 3.780908 0.151213
v 0.151213 3.780908 0.087303
v 0.174606 3.780908 0.000000
v 0.151213 3.780908 -0.087303
v 0.087303 3.780908 -0.151213
v 0.000000 3.898416 -0.035588
v -0.017794 3.898416 -0.030820
v -0.030820 3.898416 -0.017794
v -0.035588 3.898416 0.000000
v -0.030820 3.898416 0.017794
v -0.017794 3.898416 0.030820
v 0.000000 3.898416 0.035588
v 0.017794 3.898416 0.030820
v 0.030820 3.898416 0.017794
v 0.035588 3.898416 0.000000
v 0.030820 3.898416 -0.017794
v 0.017794 3.898416 -0.030820
v 0.000000 -0.207481 -0.361924
v -0.180962 -0.207481 -0.313435
v -0.313435 -0.207481 -0.180962
v -0.361924 -0.207481 0.000000
v -0.313435 -0.207481 0.180962
v -0.180962 -0.207481 0.313435
v -0.000000 -0.207481 0.361924
v 0.180962 -0.207481 0.313435
v 0.313435 -0.207481 0.180962
v 0.361924 -0.207481 0.000000
v 0.313435 -0.207481 -0.180962
v 0.180962 -0.207481 -0.313435
v -0.187952 3.820274 0.264616
v 0.933301 3.140561 0.522920
v -0.053257 3.820274 -0.320070
v 1.067995 3.140561 -0.061766
v 0.316962 3.633461 0.688791
v 0.586351 3.633461 -0.480580
v 0.065223 3.889445 -0.295902
v -0.615798 2.740493 -0.341274
v 0.025337 3.889445 0.302771
v -0.655684 2.740494 0.257399
v -0.339162 3.443454 -0.623509
v -0.418933 3.443454 0.573837
v -0.249161 3.876570 -0.178312
v -0.569114 2.789934 0.530766
v 0.297741 3.876570 0.068463
v -0.022212 2.789935 0.777541
v -0.712512 3.468426 0.119154
v 0.381293 3.468426 0.612705
v 0.295081 3.820274 -0.135187
v -0.546793 3.140555 -0.919514
v -0.113914 3.820274 0.303816
v -0.955788 3.140555 -0.480511
v 0.069905 3.633458 -0.754991
v -0.748084 3.633458 0.123015
v -0.223648 3.889445 -0.204435
v -0.603437 2.740481 0.362646
v 0.274877 3.889445 0.129441
v -0.104912 2.740481 0.696521
v -0.709551 3.443446 -0.018034
v 0.287499 3.443446 0.649717
v 0.313785 3.747155 0.137186
v 0.191851 3.610877 -1.186633
v -0.283686 3.747155 0.192218
v -0.405620 3.610877 -1.131602
v 0.556429 3.823029 -0.499311
v -0.638513 3.823029 -0.389247
v 0.054460 3.660176 -0.330243
v -1.158931 4.080386 0.039950
v 0.229547 3.660176 0.243643
v -0.983845 4.080386 0.613836
v -0.536980 3.979888 -0.463452
v -0.186806 3.979888 0.684319
v -0.187321 3.767048 0.289492
v 1.123008 3.516232 0.367378
v -0.151720 3.767048 -0.309451
v 1.158609 3.516232 -0.231565
v 0.409624 3.789712 0.625504
v 0.480826 3.789712 -0.572382
v 0.203155 3.747155 0.275694
v 0.759443 3.610878 -0.931746
v -0.341791 3.747155 0.024628
v 0.214497 3.610878 -1.182812
v 0.731530 3.823029 -0.154218
v -0.358362 3.823029 -0.656349
v 0.212282 3.660176 -0.258770
v -1.023646 4.080386 -0.544855
v 0.076975 3.660176 0.325775
v -1.158952 4.080386 0.039690
v -0.233320 3.979887 -0.669847
v -0.503934 3.979887 0.499242
v -0.306967 3.767048 0.157050
v 0.788880 3.516233 0.879649
v 0.023328 3.767048 -0.343855
v 1.119175 3.516233 0.378745
v 0.042005 3.789713 0.746512
v 0.702596 3.789713 -0.255297
v -0.203154 3.747155 -0.275695
v -0.759447 3.610878 0.931743
v 0.341791 3.747155 -0.024627
v -0.214502 3.610878 1.182811
v -0.731531 3.823029 0.154215
v 0.358359 3.823029 0.656350
v 0.117961 3.660176 0.313226
v 0.983678 4.080388 -0.614079
v -0.320617 3.660176 -0.096224
v 0.545100 4.080388 -1.023529
v 0.696764 3.979889 0.132860
v -0.180392 3.979889 -0.686039
v 0.306968 3.767048 -0.157049
v -0.788878 3.516233 -0.879651
v -0.023328 3.767048 0.343854
v -1.119174 3.516233 -0.378747
v -0.042004 3.789713 -0.746512
v -0.702596 3.789713 0.255295
v -0.313785 3.747155 -0.137186
v -0.191850 3.610878 1.186634
v 0.283686 3.747154 -0.192218
v 0.405621 3.610877 1.131602
v -0.556428 3.823029 0.499311
v 0.638514 3.823029 0.389247
v -0.117959 3.660176 -0.313228
v -0.983685 4.080386 0.614070
v 0.320616 3.660176 0.096226
v -0.545111 4.080386 1.023524
v -0.696764 3.979887 -0.132867
v 0.180384 3.979887 0.686041
v 0.091461 3.889445 0.288873
v 0.703919 2.740483 -0.012325
v -0.173323 3.889445 -0.249541
v 0.439135 2.740483 -0.550739
v 0.605465 3.443448 0.370409
v 0.075896 3.443448 -0.706419
v 0.219479 3.587268 0.239491
v 0.686530 4.319753 -0.776022
v -0.325633 3.587268 -0.011215
v 0.141419 4.319753 -1.026728
v 0.670379 4.031772 -0.022932
v -0.419843 4.031772 -0.524345
v -0.054460 3.660176 0.330243
v 1.158932 4.080386 -0.039950
v -0.229546 3.660176 -0.243643
v 0.983845 4.080386 -0.613836
v 0.536980 3.979888 0.463453
v 0.186807 3.979888 -0.684319
v -0.176248 3.594392 -0.278325
v -0.790954 4.330005 0.652776
v 0.324473 3.594392 0.052248
v -0.290233 4.330005 0.983349
v -0.661082 4.040090 -0.088452
v 0.340361 4.040090 0.572692
vt 0.500977 0.500000
vt 1.000000 0.500000
vt 1.000000 1.000000
vt 0.500977 1.000000
vt 0.500977 0.000000
vt 1.000000 0.000000
vt 0.500977 0.500000
vt 1.000000 0.500000
vt 1.000000 1.000000
vt 0.500977 1.000000
vt 0.500977 0.000000
vt 1.000000 0.000000
vt 0.500977 0.500000
vt 1.000000 0.500000
vt 1.000000 1.000000
vt 0.500977 1.000000
vt 0.500977 0.000000
vt 1.000000 0.000000
vt 0.500977 0.500000
vt 1.000000 0.500000
vt 1.000000 1.000000
vt 0.500977 1.000000
vt 0.500977 0.000000
vt 1.000000 0.000000
vt 0.500977 0.500000
vt 1.000000 0.500000
vt 1.000000 1.000000
vt 0.500977 1.000000
vt 0.500977 0.000000
vt 1.000000 0.000000
vt 0.500977 0.500000
vt 1.000000 0.500000
vt 1.000000 1.000000
vt 0.500977 1.000000
vt 0.500977 0.000000
vt 1.000000 0.000000
vt 0.500977 0.500000
vt 1.000000 0.500000
vt 1.000000 1.000000
vt 0.500977 1.000000
vt 0.500977 0.000000
vt 1.000000 0.000000
vt 0.500977 0.500000
vt 1.000000 0.500000
vt 1.000000 1.000000
vt 0.500977 1.000000
vt 0.500977 0.000000
vt 1.000000 0.000000
vt 0.500977 0.500000
vt 1.000000 0.500000
vt 1.000000 1.000000
vt 0.500977 1.000000
vt 0.500977 0.000000
vt 1.000000 0.000000
vt 0.500977 0.500000
vt 1.000000 0.500000
vt 1.000000 1.000000
vt 0.500977 1.000000
vt 0.500977 0.000000
vt 1.000000 0.000000
vt 0.500977 0.500000
vt 1.000000 0.500000
vt 1.000000 1.000000
vt 0.500977 1.000000
vt 0.500977 0.000000
vt 1.000000 0.000000
vt 0.500977 0.500000
vt 1.000000 0.500000
vt 1.000000 1.000000
vt 0.500977 1.000000
vt 0.500977 0.000000
vt 1.000000 0.000000
vt 0.500977 0.500000
vt 1.000000 0.500000
vt 1.000000 1.000000
vt 0.500977 1.000000
vt 0.500977 0.000000
vt 1.000000 0.000000
vt 0.500977 0.500000
vt 1.000000 0.500000
vt 1.000000 1.000000
vt 0.500977 1.000000
vt 0.500977 0.000000
vt 1.000000 0.000000
vt 0.500977 0.500000
vt 1.000000 0.500000
vt 1.000000 1.000000
vt 0.500977 1.000000
vt 0.500977 0.000000
vt 1.000000 0.000000
vt 0.500977 0.500000
vt 1.000000 0.500000
vt 1.000000 1.000000
vt 0.500977 1.000000
vt 0.500977 0.000000
vt 1.000000 0.000000
vt 0.500977 0.500000
vt 1.000000 0.500000
vt 1.000000 1.000000
vt 0.500977 1.000000
vt 0.500977 0.000000
vt 1.000000 0.000000
vt 0.500977 0.500000
vt 1.000000 0.500000
vt 1.000000 1.000000
vt 0.500977 1.000000
vt 0.500977 0.000000
vt 1.000000 0.000000
vt 0.500977 0.500000
vt 1.000000 0.500000
vt 1.000000 1.000000
vt 0.500977 1.000000
vt 0.500977 0.000000
vt 1.000000 0.000000
vt 0.500977 0.500000
vt 1.000000 0.500000
vt 1.000000 1.000000
vt 0.500977 1.000000
vt 0.500977 0.000000
vt 1.000000 0.000000
vt 0.000000 0.000000
vt 0.500000 0.000000
vt 0.500000 1.000000
vt 0.000000 1.000000
vt 0.000000 0.000000
vt 0.500000 0.000000
vt 0.500000 1.000000
vt 0.000000 1.000000
vt 0.000000 0.000000
vt 0.500000 0.000000
vt 0.500000 5.000000
vt 0.000000 5.000000
vt 0.000000 0.000000
vt 0.500000 0.000000
vt 0.500000 5.000000
vt 0.000000 5.000000
vt 0.000000 0.000000
vt 0.500000 0.000000
vt 0.500000 5.000000
vt 0.000000 5.000000
vt 0.000000 0.000000
vt 0.500000 0.000000
vt 0.500000 5.000000
vt 0.000000 5.000000
vt 0.500000 0.000000
vt 0.500000 5.000000
vt 0.000000 5.000000
vt 0.000000 0.000000
vt 0.500000 0.000000
vt 0.500000 5.000000
vt 0.000000 5.000000
vt 0.000000 0.000000
vt 0.500000 0.000000
vt 0.500000 5.000000
vt 0.000000 5.000000
vt 0.000000 0.000000
vt 0.500000 0.000000
vt 0.500000 5.000000
vt 0.000000 5.000000
vt 0.000000 0.000000
vt 0.500000 0.000000
vt 0.500000 5.000000
vt 0.000000 5.000000
vt 0.000000 0.000000
vt 0.500000 5.000000
vt 0.000000 5.000000
vt 0.000000 0.000000
vt 0.500000 0.000000
vt 0.500000 5.000000
vt 0.000000 5.000000
vt 0.000000 0.000000
vt 0.500000 0.000000
vt 0.500000 5.000000
vt 0.000000 5.000000
vt 0.000000 0.000000
vt 0.500000 0.000000
vt 0.500000 1.000000
vt 0.000000 1.000000
vt 0.000000 0.000000
vt 0.500000 0.000000
vt 0.500000 1.000000
vt 0.000000 1.000000
vt 0.000000 0.000000
vt 0.500000 0.000000
vt 0.500000 1.000000
vt 0.000000 1.000000
vt 0.000000 0.000000
vt 0.500000 0.000000
vt 0.500000 1.000000
vt 0.000000 1.000000
vt 0.000000 0.000000
vt 0.500000 0.000000
vt 0.500000 1.000000
vt 0.000000 1.000000
vt 0.000000 0.000000
vt 0.500000 0.000000
vt 0.500000 1.000000
vt 0.000000 1.000000
vt 0.000000 0.000000
vt 0.500000 0.000000
vt 0.500000 1.000000
vt 0.000000 1.000000
vt 0.000000 0.000000
vt 0.500000 0.000000
vt 0.500000 1.000000
vt 0.000000 1.000000
vt 0.000000 0.000000
vt 0.500000 0.000000
vt 0.500000 1.000000
vt 0.000000 1.000000
vt 0.000000 0.000000
vt 0.500000 0.000000
vt 0.500000 1.000000
vt 0.000000 1.000000
vt 0.000000 0.000000
vt 0.500000 0.000000
vt 0.500000 1.000000
vt 0.000000 1.000000
vt 0.000000 0.000000
vt 0.500000 0.000000
vt 0.500000 1.000000
vt 0.000000 1.000000
vt 0.000000 0.000000
vt 0.500000 0.000000
vt 0.500000 1.000000
vt 0.000000 1.000000
vt 0.000000 0.000000
vt 0.500000 0.000000
vt 0.500000 1.000000
vt 0.000000 1.000000
vt 0.000000 0.000000
vt 0.500000 0.000000
vt 0.500000 1.000000
vt 0.000000 1.000000
vt 0.000000 0.000000
vt 0.500000 0.000000
vt 0.500000 1.000000
vt 0.000000 1.000000
vt 0.000000 0.000000
vt 0.500000 0.000000
vt 0.500000 1.000000
vt 0.000000 1.000000
vt 0.000000 0.000000
vt 0.500000 0.000000
vt 0.500000 1.000000
vt 0.000000 1.000000
vt 0.000000 0.000000
vt 0.500000 0.000000
vt 0.500000 1.000000
vt 0.000000 1.000000
vt 0.000000 0.000000
vt 0.500000 0.000000
vt 0.500000 1.000000
vt 0.000000 1.000000
vt 0.000000 0.000000
vt 0.500000 0.000000
vt 0.500000 1.000000
vt 0.000000 1.000000
vt 0.000000 0.000000
vt 0.500000 0.000000
vt 0.500000 1.000000
vt 0.000000 1.000000
vt 0.000000 0.000000
vt 0.500000 0.000000
vt 0.500000 1.000000
vt 0.000000 1.000000
vt 0.000000 0.000000
vt 0.500000 0.000000
vt 0.500000 1.000000
vt 0.000000 1.000000
vt 0.250000 1.000000
vt 0.375000 0.933013
vt 0.466506 0.750000
vt 0.500000 0.500000
vt 0.466506 0.250000
vt 0.375000 0.066987
vt 0.250000 0.000000
vt 0.125000 0.066987
vt 0.033494 0.250000
vt 0.000000 0.500000
vt 0.033494 0.750000
vt 0.125000 0.933013
vt 0.000000 0.000000
vt 0.500000 0.000000
vt 0.500000 1.000000
vt 0.000000 1.000000
vt 0.000000 0.000000
vt 0.500000 0.000000
vt 0.500000 1.000000
vt 0.000000 1.000000
vt 0.000000 0.000000
vt 0.500000 0.000000
vt 0.500000 1.000000
vt 0.000000 1.000000
vt 0.000000 0.000000
vt 0.500000 0.000000
vt 0.500000 1.000000
vt 0.000000 1.000000
vt 0.000000 0.000000
vt 0.500000 0.000000
vt 0.500000 1.000000
vt 0.000000 1.000000
vt 0.000000 0.000000
vt 0.500000 0.000000
vt 0.500000 1.000000
vt 0.000000 1.000000
vt 0.000000 0.000000
vt 0.500000 0.000000
vt 0.500000 1.000000
vt 0.000000 1.000000
vt 0.000000 0.000000
vt 0.500000 0.000000
vt 0.500000 1.000000
vt 0.000000 1.000000
vt 0.000000 0.000000
vt 0.500000 0.000000
vt 0.500000 1.000000
vt 0.000000 1.000000
vt 0.000000 0.000000
vt 0.500000 0.000000
vt 0.500000 1.000000
vt 0.000000 1.000000
vt 0.000000 0.000000
vt 0.500000 0.000000
vt 0.500000 1.000000
vt 0.000000 1.000000
vt 0.250000 1.000000
vt 0.375000 0.933013
vt 0.466506 0.750000
vt 0.500000 0.500000
vt 0.466506 0.250000
vt 0.375000 0.066987
vt 0.250000 0.000000
vt 0.125000 0.066987
vt 0.033494 0.250000
vt 0.000000 0.500000
vt 0.033494 0.750000
vt 0.125000 0.933013
vt 0.500000 1.000000
vt 0.000000 1.000000
vt 0.500000 1.000000
vt 0.000000 1.000000
vt 0.500000 1.000000
vt 0.000000 1.000000
vt 0.500000 1.000000
vt 0.000000 1.000000
vt 0.500000 1.000000
vt 0.000000 1.000000
vt 0.500000 1.000000
vt 0.000000 1.000000
vt 0.500000 1.000000
vt 0.000000 1.000000
vt 0.500000 1.000000
vt 0.000000 1.000000
vt 0.500000 1.000000
vt 0.000000 1.000000
vt 0.500000 1.000000
vt 0.000000 1.000000
vt 0.500000 1.000000
vt 0.000000 1.000000
vn 0.6417 0.7526 0.1478
vn 0.2954 0.9529 0.0681
vn -0.9370 0.3437 -0.0624
vn -0.7221 0.6901 -0.0481
vn -0.3728 0.4224 0.8262
vn -0.2724 0.7492 0.6037
vn -0.4818 0.7526 -0.4489
vn -0.2218 0.9529 -0.2066
vn -0.5226 0.3437 0.7803
vn -0.4027 0.6901 0.6013
vn -0.0260 0.9590 -0.2822
vn 0.0113 0.9924 0.1226
vn 0.1284 0.9909 -0.0392
vn 0.4962 0.8549 -0.1514
vn 0.3647 0.9309 0.0217
vn -0.0367 0.9993 -0.0022
vn 0.1186 0.9590 -0.2574
vn -0.0515 0.9924 0.1118
vn 0.1308 0.9909 0.0303
vn 0.5054 0.8549 0.1170
vn 0.3050 0.9309 0.2011
vn -0.0307 0.9993 -0.0202
vn -0.1186 0.9590 0.2574
vn 0.0515 0.9924 -0.1118
vn -0.0916 0.9909 0.0981
vn -0.3540 0.8549 0.3792
vn -0.3050 0.9309 -0.2011
vn 0.0307 0.9993 0.0202
vn 0.0260 0.9590 0.2822
vn -0.0113 0.9924 -0.1226
vn 0.0916 0.9909 -0.0981
vn 0.3540 0.8549 -0.3792
vn 0.8427 0.3437 -0.4144
vn 0.6494 0.6901 -0.3194
vn -0.1608 0.9230 0.3495
vn -0.3014 0.6926 0.6553
vn -0.1284 0.9909 0.0392
vn -0.4962 0.8549 0.1514
vn 0.2134 0.9220 -0.3232
vn 0.3985 0.6906 -0.6036
vn 0.0000 0.2107 0.9775
vn -0.4888 0.2107 0.8466
vn -0.4300 -0.5102 0.7448
vn 0.0000 -0.5102 0.8600
vn 0.7793 -0.4361 -0.4499
vn 0.4499 -0.4361 -0.7793
vn 0.4388 -0.4794 -0.7600
vn 0.7600 -0.4794 -0.4388
vn 0.8466 0.2107 0.4888
vn 0.9775 0.2107 0.0000
vn 0.8999 -0.4361 0.0000
vn 0.7793 -0.4361 0.4499
vn 0.0000 -0.4361 0.8999
vn -0.4499 -0.4361 0.7793
vn -0.8466 0.2107 -0.4888
vn -0.9775 0.2107 0.0000
vn -0.8999 -0.4361 0.0000
vn -0.7793 -0.4361 -0.4499
vn 0.8466 0.2107 -0.4888
vn 0.4888 0.2107 0.8466
vn 0.4499 -0.4361 0.7793
vn -0.8466 0.2107 0.4888
vn -0.7793 -0.4361 0.4499
vn 0.4888 0.2107 -0.8466
vn 0.0000 0.2107 -0.9775
vn -0.4888 0.2107 -0.8466
vn -0.4499 -0.4361 -0.7793
vn 0.0000 -0.4361 -0.8999
vn -0.8776 -0.4794 0.0000
vn -0.7600 -0.4794 0.4388
vn -0.8212 0.3176 0.4741
vn -0.9482 0.3176 0.0000
vn -0.4388 -0.4794 -0.7600
vn 0.0000 -0.4794 -0.8776
vn 0.7600 -0.4794 0.4388
vn 0.4388 -0.4794 0.7600
vn -0.4388 -0.4794 0.7600
vn -0.7600 -0.4794 -0.4388
vn 0.8776 -0.4794 0.0000
vn 0.0000 -0.4794 0.8776
vn -0.3396 0.9199 0.1961
vn -0.3921 0.9199 0.0000
vn 0.4741 0.3176 -0.8212
vn 0.8212 0.3176 -0.4741
vn -0.4741 0.3176 -0.8212
vn 0.0000 0.3176 -0.9482
vn 0.8212 0.3176 0.4741
vn 0.4741 0.3176 0.8212
vn -0.4741 0.3176 0.8212
vn -0.8212 0.3176 -0.4741
vn 0.9482 0.3176 0.0000
vn 0.0000 0.3176 0.9482
vn -0.1961 0.9199 -0.3396
vn -0.3396 0.9199 -0.1961
vn -0.1961 0.9199 0.3396
vn 0.0000 0.9199 0.3921
vn 0.1961 0.9199 0.3396
vn 0.3396 0.9199 0.1961
vn 0.3921 0.9199 0.0000
vn 0.3396 0.9199 -0.1961
vn 0.1961 0.9199 -0.3396
vn 0.0000 0.9199 -0.3921
vn -0.4300 -0.5102 -0.7448
vn 0.0000 -0.5102 -0.8600
vn 0.4300 -0.5102 -0.7448
vn 0.7448 -0.5102 -0.4300
vn 0.8600 -0.5102 0.0000
vn 0.7448 -0.5102 0.4300
vn 0.4300 -0.5102 0.7448
vn -0.7448 -0.5102 0.4300
vn -0.8600 -0.5102 0.0000
vn -0.7448 -0.5102 -0.4300
s off
f 78/1/1 77/2/1 74/3/1 76/4/1
f 75/5/2 73/6/2 77/2/2 78/1/2
f 84/7/3 83/8/3 80/9/3 82/10/3
f 81/11/4 79/12/4 83/8/4 84/7/4
f 90/13/5 89/14/5 86/15/5 88/16/5
f 87/17/6 85/18/6 89/14/6 90/13/6
f 96/19/7 95/20/7 92/21/7 94/22/7
f 93/23/8 91/24/8 95/20/8 96/19/8
f 102/25/9 101/26/9 98/27/9 100/28/9
f 99/29/10 97/30/10 101/26/10 102/25/10
f 108/31/11 107/32/11 104/33/11 106/34/11
f 105/35/12 103/36/12 107/32/12 108/31/12
f 114/37/13 113/38/13 110/39/13 112/40/13
f 111/41/14 109/42/14 113/38/14 114/37/14
f 120/43/15 119/44/15 116/45/15 118/46/15
f 117/47/16 115/48/16 119/44/16 120/43/16
f 126/49/17 125/50/17 122/51/17 124/52/17
f 123/53/18 121/54/18 125/50/18 126/49/18
f 132/55/19 131/56/19 128/57/19 130/58/19
f 129/59/20 127/60/20 131/56/20 132/55/20
f 138/61/21 137/62/21 134/63/21 136/64/21
f 135/65/22 133/66/22 137/62/22 138/61/22
f 144/67/23 143/68/23 140/69/23 142/70/23
f 141/71/24 139/72/24 143/68/24 144/67/24
f 150/73/25 149/74/25 146/75/25 148/76/25
f 147/77/26 145/78/26 149/74/26 150/73/26
f 156/79/27 155/80/27 152/81/27 154/82/27
f 153/83/28 151/84/28 155/80/28 156/79/28
f 162/85/29 161/86/29 158/87/29 160/88/29
f 159/89/30 157/90/30 161/86/30 162/85/30
f 168/91/31 167/92/31 164/93/31 166/94/31
f 165/95/32 163/96/32 167/92/32 168/91/32
f 174/97/33 173/98/33 170/99/33 172/100/33
f 171/101/34 169/102/34 173/98/34 174/97/34
f 180/103/35 179/104/35 176/105/35 178/106/35
f 177/107/36 175/108/36 179/104/36 180/103/36
f 186/109/37 185/110/37 182/111/37 184/112/37
f 183/113/38 181/114/38 185/110/38 186/109/38
f 192/115/39 191/116/39 188/117/39 190/118/39
f 189/119/40 187/120/40 191/116/40 192/115/40
s 1
f 7/121/41 6/122/42 66/123/43 67/124/44
f 23/125/45 24/126/46 36/127/47 35/128/48
f 9/129/49 10/130/50 22/131/51 21/132/52
f 6/133/42 7/134/41 19/135/53 18/136/54
f 3/137/55 4/138/56 16/139/57 15/140/58
f 10/141/50 11/142/59 23/143/45 22/144/51
f 7/121/41 8/145/60 20/146/61 19/147/53
f 4/148/56 5/149/62 17/150/63 16/151/57
f 11/152/59 12/153/64 24/154/46 23/155/45
f 1/156/65 2/157/66 14/158/67 13/159/68
f 8/160/60 9/161/49 21/162/52 20/163/61
f 5/164/62 6/122/42 18/165/54 17/166/63
f 12/167/64 1/168/65 13/169/68 24/170/46
f 2/171/66 3/172/55 15/173/58 14/174/67
f 28/175/69 29/176/70 41/177/71 40/178/72
f 13/179/68 14/180/67 26/181/73 25/182/74
f 20/183/61 21/184/52 33/185/75 32/186/76
f 17/187/63 18/188/54 30/189/77 29/190/70
f 24/191/46 13/192/68 25/193/74 36/194/47
f 14/195/67 15/196/58 27/197/78 26/198/73
f 21/199/52 22/200/51 34/201/79 33/202/75
f 18/203/54 19/204/53 31/205/80 30/206/77
f 15/207/58 16/208/57 28/209/69 27/210/78
f 22/211/51 23/212/45 35/213/48 34/214/79
f 19/215/53 20/216/61 32/217/76 31/218/80
f 16/219/57 17/220/63 29/221/70 28/222/69
f 40/223/72 41/224/71 53/225/81 52/226/82
f 35/227/48 36/228/47 48/229/83 47/230/84
f 25/231/74 26/232/73 38/233/85 37/234/86
f 32/235/76 33/236/75 45/237/87 44/238/88
f 29/239/70 30/240/77 42/241/89 41/242/71
f 36/243/47 25/244/74 37/245/86 48/246/83
f 26/247/73 27/248/78 39/249/90 38/250/85
f 33/251/75 34/252/79 46/253/91 45/254/87
f 30/255/77 31/256/80 43/257/92 42/258/89
f 27/259/78 28/260/69 40/261/72 39/262/90
f 34/263/79 35/264/48 47/265/84 46/266/91
f 31/267/80 32/268/76 44/269/88 43/270/92
f 50/271/93 51/272/94 52/273/82 53/274/81 54/275/95 55/276/96 56/277/97 57/278/98 58/279/99 59/280/100 60/281/101 49/282/102
f 47/283/84 48/284/83 60/285/101 59/286/100
f 37/287/86 38/288/85 50/289/93 49/290/102
f 44/291/88 45/292/87 57/293/98 56/294/97
f 41/295/71 42/296/89 54/297/95 53/298/81
f 48/299/83 37/300/86 49/301/102 60/302/101
f 38/303/85 39/304/90 51/305/94 50/306/93
f 45/307/87 46/308/91 58/309/99 57/310/98
f 42/311/89 43/312/92 55/313/96 54/314/95
f 39/315/90 40/316/72 52/317/82 51/318/94
f 46/319/91 47/320/84 59/321/100 58/322/99
f 43/323/92 44/324/88 56/325/97 55/326/96
f 62/327/103 61/328/104 72/329/105 71/330/106 70/331/107 69/332/108 68/333/109 67/334/44 66/335/43 65/336/110 64/337/111 63/338/112
f 4/148/56 3/172/55 63/339/112 64/340/111
f 11/152/59 10/130/50 70/341/107 71/342/106
f 8/160/60 7/134/41 67/343/44 68/344/109
f 5/164/62 4/138/56 64/345/111 65/346/110
f 12/167/64 11/142/59 71/347/106 72/348/105
f 2/171/66 1/168/65 61/349/104 62/350/103
f 9/129/49 8/145/60 68/351/109 69/352/108
f 6/133/42 5/149/62 65/353/110 66/354/43
f 1/156/65 12/153/64 72/355/105 61/356/104
f 3/137/55 2/157/66 62/357/103 63/358/112
f 10/141/50 9/161/49 69/359/108 70/360/107
