# Blender v2.80 (sub 75) OBJ File: ''
# www.blender.org
o RockTooth_Cube.009
v -1.150936 -0.585329 1.167873
v -1.271530 -0.556779 -0.650548
v 0.649332 -0.633586 0.604490
v 1.175835 -0.633255 -1.111020
v 0.550943 -0.638606 0.449930
v 0.703540 1.458018 0.316603
v 0.532087 -0.648728 -0.486962
v 0.674782 1.457595 -0.319765
v 1.526261 -0.718816 0.512772
v 1.634611 -0.668479 -0.594478
v 0.142875 2.320644 0.748383
v 0.772031 1.370531 0.770647
v 0.693846 1.997746 0.091614
v -0.346381 2.534246 0.747302
v -0.800647 2.924939 0.352428
v -0.817703 2.154353 0.818487
v -0.390138 2.989927 -0.788196
v -0.787806 2.692272 -0.754955
v -0.785699 3.139823 -0.329991
v 0.488535 2.170120 -0.734421
v 0.766128 2.009139 -0.475749
v 0.771462 1.593600 -0.778128
v 1.204666 1.360799 0.574239
v 1.501049 0.699676 0.541646
v 1.511301 1.123339 0.172168
v 1.338062 1.031709 -0.116727
v 1.470193 0.776302 -0.449325
v 1.151870 1.186183 -0.362756
v -1.343241 -0.639799 0.273910
v -0.068648 -0.633816 -0.936486
v 0.947948 -0.652836 -0.257747
v -0.264844 -0.645051 0.947048
v 0.541414 -0.674045 -0.002773
v 0.553028 0.429787 0.450172
v 0.560258 1.548935 0.001920
v 0.550630 0.429079 -0.456489
v 1.106319 -0.677216 -0.540691
v 1.596726 -0.699407 -0.075320
v 1.006412 -0.695352 0.497454
v 0.411033 2.181495 0.407776
v 0.474892 1.868545 0.852412
v 0.771608 1.694808 0.431854
v 0.762006 0.389722 0.735585
v -0.561652 2.349603 0.796125
v -0.545386 2.723107 0.533082
v -0.791812 2.529835 0.552806
v -0.576154 3.071162 -0.540667
v -0.592955 2.850320 -0.795085
v -0.734389 2.913709 -0.537657
v -0.101753 2.413667 0.747623
v -1.007174 0.809820 1.032012
v -0.733194 2.922207 -0.014304
v -1.070563 1.086653 -0.738877
v 0.652257 1.911381 -0.776858
v 0.662816 2.154118 -0.615985
v 0.823736 1.814334 -0.632707
v 0.074111 2.572655 -0.784163
v 1.044333 0.538402 -1.002116
v 0.696789 1.982023 -0.190218
v 1.342887 1.244216 0.343676
v 1.343877 1.008306 0.557330
v 1.434152 0.891936 0.345125
v 1.227265 1.092101 -0.238996
v 1.381669 0.900518 -0.257615
v 1.284047 0.976734 -0.396274
v 1.407466 1.059013 0.026578
v 0.890782 1.324967 -0.327067
v 0.914780 1.367676 0.366521
v 1.528575 0.055647 -0.503778
v 1.491821 0.025929 0.506594
v -0.960059 1.610459 0.097631
v -0.173510 -0.684603 0.007759
v 0.018363 2.591569 -0.044643
v 0.529384 0.429722 -0.000000
v 1.064025 0.436659 0.490413
v 1.084643 0.417371 -0.400582
v 1.055594 -0.757453 -0.044141
v 1.559448 0.372271 -0.000097
v 0.656140 2.003943 0.612499
v 0.802546 0.938263 -0.167587
v -0.645017 2.574085 0.636314
v -0.689202 3.044315 -0.666726
v -0.129756 1.182006 0.849954
v 0.674665 1.947659 -0.676327
v 0.006431 1.371437 -0.776423
v 1.437086 1.084434 0.443006
v 1.314323 1.018791 -0.306441
v 1.089648 1.351850 0.026904
vt 0.375000 0.000000
vt 0.481764 0.000000
vt 0.530391 0.125000
vt 0.375000 0.125000
vt 0.588528 0.000000
vt 0.606764 0.037564
vt 0.625000 0.075128
vt 0.625000 0.125000
vt 0.625000 0.174872
vt 0.609409 0.212436
vt 0.595792 0.249561
vt 0.488669 0.250084
vt 0.375000 0.250000
vt 0.125000 0.500000
vt 0.250000 0.500000
vt 0.250000 0.625000
vt 0.125000 0.625000
vt 0.367086 0.492086
vt 0.375614 0.624552
vt 0.367086 0.757914
vt 0.250000 0.750000
vt 0.125000 0.750000
vt 0.625300 0.547529
vt 0.644434 0.525371
vt 0.751217 0.617037
vt 0.626434 0.595726
vt 0.663867 0.500000
vt 0.738800 0.500000
vt 0.809751 0.500000
vt 0.839483 0.540520
vt 0.873823 0.575908
vt 0.875000 0.625000
vt 0.875000 0.674872
vt 0.837702 0.712436
vt 0.800403 0.750000
vt 0.766068 0.750000
vt 0.730528 0.749978
vt 0.680490 0.690526
vt 0.622988 0.642781
vt 0.375000 0.000000
vt 0.500000 0.000000
vt 0.500000 0.125000
vt 0.375000 0.125000
vt 0.625000 0.000000
vt 0.625000 0.125000
vt 0.625000 0.247766
vt 0.500740 0.250087
vt 0.375000 0.250000
vt 0.367086 0.757915
vt 0.485260 0.749464
vt 0.517526 0.864115
vt 0.375000 0.875000
vt 0.589997 0.749538
vt 0.606315 0.785287
vt 0.625000 0.820574
vt 0.625000 0.910287
vt 0.625000 1.000000
vt 0.500000 1.000000
vt 0.375000 1.000000
vt 0.517526 0.385885
vt 0.375000 0.375000
vt 0.625000 0.339713
vt 0.625000 0.429426
vt 0.606315 0.464713
vt 0.589997 0.500462
vt 0.485260 0.500536
vt 0.367086 0.492086
vt 0.125000 0.500000
vt 0.250000 0.500000
vt 0.250000 0.625000
vt 0.125000 0.625000
vt 0.375839 0.625000
vt 0.250000 0.750000
vt 0.125000 0.750000
vt 0.529210 0.625000
vt 0.606315 0.542578
vt 0.623817 0.579764
vt 0.625818 0.625000
vt 0.623817 0.670236
vt 0.606315 0.707422
vt 0.678366 0.749657
vt 0.660578 0.711624
vt 0.625000 0.749314
vt 0.625000 0.692436
vt 0.489285 0.499772
vt 0.526171 0.614383
vt 0.597453 0.501547
vt 0.610296 0.525371
vt 0.593217 0.692778
vt 0.565459 0.749756
vt 0.473731 0.749737
vt 0.625000 0.925591
vt 0.625000 0.962702
vt 0.612843 0.975135
vt 0.602635 0.959782
vt 0.625000 1.000000
vt 0.606764 1.000000
vt 0.582923 1.000000
vt 0.825777 0.500000
vt 0.842185 0.525043
vt 0.837822 0.500000
vt 0.856411 0.537564
vt 0.524994 0.880356
vt 0.375000 0.875000
vt 0.593217 0.803366
vt 0.625000 0.856733
vt 0.625000 0.891068
vt 0.481764 1.000000
vt 0.375000 1.000000
vt 0.625000 0.457559
vt 0.625000 0.479621
vt 0.615197 0.486414
vt 0.606171 0.475909
vt 0.625000 0.498109
vt 0.610296 0.499054
vt 0.531568 0.378733
vt 0.375000 0.375000
vt 0.609409 0.280634
vt 0.625000 0.311267
vt 0.625000 0.386200
vt 0.699020 0.750000
vt 0.660287 0.750000
vt 0.648525 0.721615
vt 0.663386 0.704571
vt 0.625000 0.750000
vt 0.625000 0.707422
vt 0.625000 0.542578
vt 0.648525 0.528385
vt 0.663386 0.545429
vt 0.625000 0.500000
vt 0.660287 0.500000
vt 0.699020 0.500000
vt 0.731858 0.625000
vt 0.785287 0.500000
vt 0.875000 0.500000
vt 0.875000 0.625000
vt 0.875000 0.750000
vt 0.785287 0.750000
vn -0.5048 -0.4870 0.7127
vn -0.5751 0.1627 0.8017
vn -0.9872 0.1524 0.0453
vn -0.7837 -0.6193 0.0468
vn -0.6207 0.2585 0.7402
vn -0.8091 0.3670 0.4588
vn -0.4899 0.8123 0.3163
vn -0.4845 0.8444 0.2287
vn -0.5000 0.8514 0.1585
vn -0.9101 0.3414 -0.2347
vn -0.7408 0.1701 -0.6498
vn -0.7371 0.1143 -0.6660
vn -0.6682 -0.5106 -0.5411
vn -0.1185 -0.6635 -0.7387
vn -0.0173 -0.9998 -0.0084
vn 0.6456 -0.4942 -0.5821
vn 0.7120 -0.6859 0.1502
vn 0.5661 -0.6242 0.5383
vn 0.1475 -0.6832 0.7151
vn 0.8976 0.4398 0.0291
vn 0.7373 0.6363 -0.2269
vn 0.5584 0.8163 0.1475
vn 0.8858 0.4448 0.1319
vn 0.4546 0.4799 -0.7503
vn 0.4387 0.5518 -0.7093
vn 0.3266 0.6945 -0.6410
vn 0.0892 0.9839 -0.1548
vn 0.1134 0.8136 0.5702
vn 0.1858 0.6177 0.7642
vn 0.3090 0.5665 0.7639
vn 0.3285 0.6157 0.7162
vn 0.6369 0.7457 0.1957
vn 0.8643 0.5028 0.0106
vn -0.6292 -0.5112 0.5854
vn -0.6956 0.0690 0.7150
vn -0.9988 0.0446 0.0167
vn -0.7382 -0.6746 0.0036
vn -0.3486 0.7308 0.5867
vn -0.6034 0.7971 -0.0218
vn -0.3246 0.7013 -0.6346
vn -0.6560 0.0929 -0.7490
vn -0.6032 -0.5083 -0.6147
vn 0.5424 -0.5646 0.6221
vn 0.6483 0.0254 0.7609
vn -0.1177 0.0108 0.9930
vn -0.0798 -0.6787 0.7300
vn 0.6825 0.0468 0.7293
vn 0.3563 0.1929 0.9142
vn 0.1332 0.6607 0.7387
vn 0.0607 0.7203 0.6910
vn -0.0638 0.0854 -0.9943
vn -0.0536 -0.6398 -0.7666
vn 0.3143 0.5844 -0.7481
vn 0.3741 0.5486 -0.7477
vn 0.3844 0.4424 -0.8102
vn 0.6246 0.2757 -0.7306
vn 0.6367 0.1601 -0.7543
vn 0.5881 -0.4614 -0.6642
vn -0.0418 -0.9988 -0.0227
vn 0.7436 -0.6684 0.0146
vn 0.9935 0.1136 0.0049
vn 0.8864 0.4308 -0.1692
vn 0.8032 0.5300 -0.2716
vn 0.8442 0.4711 -0.2556
vn 0.8964 0.4374 -0.0717
vn 0.9786 0.1532 0.1370
vn 0.4072 0.3077 0.8600
vn 0.7644 0.5567 0.3252
vn 0.7374 0.0292 0.6748
vn 0.9573 0.2493 0.1464
vn 0.7276 0.1646 -0.6659
vn 0.9906 0.0680 0.1186
vn 0.6693 0.2461 -0.7010
vn 0.9448 0.2669 -0.1901
vn 0.7288 -0.0257 0.6842
vn -0.3141 0.5285 0.7886
vn -0.1183 0.3267 0.9377
vn -0.2872 0.3061 -0.9076
vn -0.5239 0.6384 -0.5639
vn 0.1245 0.0372 0.9915
vn 0.7245 0.3873 -0.5701
vn 0.3952 0.2553 -0.8824
vn -0.0665 0.0502 -0.9965
vn 0.8829 0.3083 0.3541
vn 0.6905 0.7178 0.0890
vn 0.7552 0.6301 -0.1805
vn 0.6905 0.6829 -0.2385
vn 0.4658 0.8687 -0.1684
s 1
f 1/1/1 51/2/2 71/3/3 29/4/4
f 16/5/5 46/6/6 71/3/3 51/2/2
f 15/7/7 52/8/8 71/3/3 46/6/6
f 19/9/9 49/10/10 71/3/3 52/8/8
f 18/11/11 53/12/12 71/3/3 49/10/10
f 2/13/13 29/4/4 71/3/3 53/12/12
f 2/14/13 30/15/14 72/16/15 29/17/4
f 30/15/14 4/18/16 31/19/17 72/16/15
f 72/16/15 31/19/17 3/20/18 32/21/19
f 29/17/4 72/16/15 32/21/19 1/22/1
f 21/23/20 55/24/21 73/25/22 59/26/23
f 20/27/24 57/28/25 73/25/22 55/24/21
f 17/29/26 47/30/27 73/25/22 57/28/25
f 19/31/9 52/32/8 73/25/22 47/30/27
f 15/33/7 45/34/28 73/25/22 52/32/8
f 14/35/29 50/36/30 73/25/22 45/34/28
f 11/37/31 40/38/32 73/25/22 50/36/30
f 13/39/33 59/26/23 73/25/22 40/38/32
f 5/40/34 34/41/35 74/42/36 33/43/37
f 34/41/35 6/44/38 35/45/39 74/42/36
f 74/42/36 35/45/39 8/46/40 36/47/41
f 33/43/37 74/42/36 36/47/41 7/48/42
f 9/49/43 70/50/44 75/51/45 39/52/46
f 24/53/47 61/54/48 75/51/45 70/50/44
f 23/55/49 68/56/50 75/51/45 61/54/48
f 6/57/38 34/58/35 75/51/45 68/56/50
f 5/59/34 39/52/46 75/51/45 34/58/35
f 7/48/42 36/47/41 76/60/51 37/61/52
f 8/46/40 67/62/53 76/60/51 36/47/41
f 28/63/54 65/64/55 76/60/51 67/62/53
f 27/65/56 69/66/57 76/60/51 65/64/55
f 10/67/58 37/61/52 76/60/51 69/66/57
f 7/68/42 37/69/52 77/70/59 33/71/37
f 37/69/52 10/67/58 38/72/60 77/70/59
f 77/70/59 38/72/60 9/49/43 39/73/46
f 33/71/37 77/70/59 39/73/46 5/74/34
f 10/67/58 69/66/57 78/75/61 38/72/60
f 27/65/56 64/76/62 78/75/61 69/66/57
f 26/77/63 66/78/64 78/75/61 64/76/62
f 25/79/65 62/80/66 78/75/61 66/78/64
f 24/53/47 70/50/44 78/75/61 62/80/66
f 9/49/43 38/72/60 78/75/61 70/50/44
f 11/37/31 41/81/67 79/82/68 40/38/32
f 12/83/69 42/84/70 79/82/68 41/81/67
f 13/39/33 40/38/32 79/82/68 42/84/70
f 4/18/16 58/85/71 80/86/72 31/19/17
f 22/87/73 56/88/74 80/86/72 58/85/71
f 21/23/20 59/26/23 80/86/72 56/88/74
f 13/39/33 42/89/70 80/86/72 59/26/23
f 12/90/69 43/91/75 80/86/72 42/89/70
f 3/20/18 31/19/17 80/86/72 43/91/75
f 14/92/29 45/93/28 81/94/76 44/95/77
f 15/96/7 46/97/6 81/94/76 45/93/28
f 16/98/5 44/95/77 81/94/76 46/97/6
f 17/29/26 48/99/78 82/100/79 47/30/27
f 18/101/11 49/102/10 82/100/79 48/99/78
f 19/31/9 47/30/27 82/100/79 49/102/10
f 3/20/18 43/91/75 83/103/80 32/104/19
f 12/90/69 41/105/67 83/103/80 43/91/75
f 11/106/31 50/107/30 83/103/80 41/105/67
f 14/92/29 44/95/77 83/103/80 50/107/30
f 16/98/5 51/108/2 83/103/80 44/95/77
f 1/109/1 32/104/19 83/103/80 51/108/2
f 20/110/24 55/111/21 84/112/81 54/113/82
f 21/114/20 56/115/74 84/112/81 55/111/21
f 22/87/73 54/113/82 84/112/81 56/115/74
f 2/13/13 53/12/12 85/116/83 30/117/14
f 18/11/11 48/118/78 85/116/83 53/12/12
f 17/119/26 57/120/25 85/116/83 48/118/78
f 20/110/24 54/113/82 85/116/83 57/120/25
f 22/87/73 58/85/71 85/116/83 54/113/82
f 4/18/16 30/117/14 85/116/83 58/85/71
f 23/121/49 61/122/48 86/123/84 60/124/85
f 24/125/47 62/126/66 86/123/84 61/122/48
f 25/79/65 60/124/85 86/123/84 62/126/66
f 26/77/63 64/127/62 87/128/86 63/129/87
f 27/130/56 65/131/55 87/128/86 64/127/62
f 28/132/54 63/129/87 87/128/86 65/131/55
f 26/77/63 63/129/87 88/133/88 66/78/64
f 28/132/54 67/134/53 88/133/88 63/129/87
f 8/135/40 35/136/39 88/133/88 67/134/53
f 6/137/38 68/138/50 88/133/88 35/136/39
f 23/121/49 60/124/85 88/133/88 68/138/50
f 25/79/65 66/78/64 88/133/88 60/124/85
